<?xml version="1.0" standalone="no"?>
<!DOCTYPE svg PUBLIC "-//W3C//DTD SVG 20010904//EN"
 "http://www.w3.org/TR/2001/REC-SVG-20010904/DTD/svg10.dtd">
<svg version="1.0" xmlns="http://www.w3.org/2000/svg"
 width="800.000000pt" height="800.000000pt" viewBox="0 0 800.000000 800.000000"
 preserveAspectRatio="xMidYMid meet">
<metadata>
Created by potrace 1.14, written by Peter Selinger 2001-2017
</metadata>
<g transform="translate(0.000000,800.000000) scale(0.100000,-0.100000)"
fill="#000000" stroke="none">
<path d="M3670 7989 c-233 -22 -481 -64 -660 -110 -805 -211 -1492 -637 -2034
-1259 -514 -590 -851 -1343 -945 -2110 -6 -47 -14 -105 -17 -130 -13 -101 -12
-625 2 -765 26 -256 79 -526 146 -750 79 -264 144 -426 273 -680 105 -206 173
-317 335 -549 15 -21 115 -150 135 -173 5 -7 15 -18 20 -25 379 -465 946 -886
1521 -1127 261 -109 583 -206 814 -245 14 -2 41 -7 60 -10 19 -3 49 -8 65 -11
172 -29 323 -39 590 -39 309 -1 394 4 600 34 330 49 615 126 930 251 109 43
458 214 525 258 19 12 91 58 158 102 287 185 572 430 797 685 39 43 72 81 75
84 10 10 118 147 162 205 169 225 352 547 468 824 109 260 209 595 245 821 3
19 8 42 10 50 5 18 11 59 24 170 6 47 14 105 17 130 3 25 7 176 9 335 4 356
-15 567 -76 855 -11 52 -22 106 -25 120 -9 47 -75 272 -108 369 -59 171 -84
233 -155 383 -28 59 -51 109 -51 112 0 9 -110 203 -178 312 -402 649 -981
1171 -1664 1498 -415 199 -802 312 -1273 372 -147 18 -653 27 -795 13z"/>
</g>
</svg>
